<svg xmlns="http://www.w3.org/2000/svg" viewBox="0 0 158 98"><defs><style>.bfff0e3b-cec9-48f4-bba7-818e0e3337c1{fill:#3e8aa7;}.\33 4278eef-5156-4093-b1af-9b1cec8e198f{fill:#23c8f5;}.cbd7586e-b3ff-4d9c-978b-c1e4945e5fef{fill:#24445a;}.\35 d5fcea6-cee1-4ba2-85de-6ae946da3c23{fill:#315d82;}</style></defs><title>commander-frame</title><g id="88ce4b56-c25a-4ede-a5dd-58969fe5acab" data-name="Layer 1"><path class="bfff0e3b-cec9-48f4-bba7-818e0e3337c1" d="M157,99H7V6H157ZM154,9H10V96H154Z" transform="translate(-3 -4)"/></g><g id="78830701-4d23-4a3f-be7f-7bb13edb3fb4" data-name="Layer 2"><polygon class="34278eef-5156-4093-b1af-9b1cec8e198f" points="0 81.12 0 98 6 98 7 98 16.88 98 0 81.12"/><polygon class="34278eef-5156-4093-b1af-9b1cec8e198f" points="30 92 21.12 92 7 77.88 7 33 6.97 33 0 26 0 33 0 40.05 0 76.88 21.12 98 24.95 98 30 98 35.05 98 30 92"/></g><g id="6dbd5751-5ea1-4fd0-8faf-d2895d9d3dcb" data-name="Layer 2 copy"><polygon class="34278eef-5156-4093-b1af-9b1cec8e198f" points="158 13.88 158 0 152 0 151 0 144 0 158 13.88"/><polygon class="34278eef-5156-4093-b1af-9b1cec8e198f" points="64 5 138.88 5 151 17.12 151 62 151.03 62 158 69 158 62 158 54.95 158 18.12 139.88 0 136.05 0 65 0 59.95 0 64 5"/><polygon class="cbd7586e-b3ff-4d9c-978b-c1e4945e5fef" points="132.5 94.5 132.5 82.34 139.93 74.5 153.5 74.5 153.5 94.5 132.5 94.5"/><path class="5d5fcea6-cee1-4ba2-85de-6ae946da3c23" d="M156,79V98H136V86.54L143.14,79H156m1-1H142.71L135,86.14V99h22V78Z" transform="translate(-3 -4)"/></g></svg>