<?xml version="1.0" encoding="utf-8"?>
<!-- Generator: Adobe Illustrator 23.0.3, SVG Export Plug-In . SVG Version: 6.00 Build 0)  -->
<svg version="1.1" id="Layer_1" xmlns="http://www.w3.org/2000/svg" xmlns:xlink="http://www.w3.org/1999/xlink" x="0px" y="0px"
	 viewBox="0 0 80 80" style="enable-background:new 0 0 80 80;" xml:space="preserve">
<style type="text/css">
	.st0{enable-background:new    ;}
	.st1{fill-rule:evenodd;clip-rule:evenodd;fill:url(#SVGID_1_);}
	.st2{fill:url(#SVGID_2_);}
	.st3{fill:url(#SVGID_3_);}
</style>
<image style="display:none;overflow:visible;" width="80" height="80" xlink:href="79229FC9.jpg"  transform="matrix(0.9999 0 0 0.9999 5.000866e-03 5.000866e-03)">
</image>
<g class="st0">
	
		<linearGradient id="SVGID_1_" gradientUnits="userSpaceOnUse" x1="-260.1635" y1="440.8125" x2="-259.1635" y2="440.8125" gradientTransform="matrix(4.898587e-15 73.4 80 -4.494453e-15 -35225 19099.2988)">
		<stop  offset="0" style="stop-color:#FF0F0D"/>
		<stop  offset="1" style="stop-color:#E9E23B"/>
	</linearGradient>
	<path class="st1" d="M0,40c0,16.4,9.9,30.5,24,36.7v-2.2C11,68.4,2,55.3,2,40s9-28.4,22-34.5V3.3C9.9,9.5,0,23.6,0,40z M56,3.3v2.2
		c13,6,22,19.2,22,34.5s-9,28.4-22,34.5v2.2C70.1,70.5,80,56.4,80,40S70.1,9.5,56,3.3z"/>
</g>
<linearGradient id="SVGID_2_" gradientUnits="userSpaceOnUse" x1="12.5" y1="9.4252" x2="12.5" y2="70.5748">
	<stop  offset="0" style="stop-color:#FF0F0D"/>
	<stop  offset="1" style="stop-color:#E9E23B"/>
</linearGradient>
<path class="st2" d="M17,57.6v-2.1c-3-4.4-4.8-9.8-4.8-15.5c0-5.7,1.8-11.1,4.8-15.5v-2.1c1.2-1.5,2.5-3,4-4.3V9.4
	C10.8,15.8,4,27.1,4,40s6.8,24.2,17,30.6v-8.7C19.5,60.6,18.2,59.2,17,57.6z M12.8,57.9c-0.1,0.1-0.2,0.1-0.4,0.1
	c-0.3,0-0.5-0.1-0.6-0.4l-0.2-0.3C8.4,52.1,6.8,46.1,6.8,40c0-6.1,1.7-12.1,4.8-17.3l0.2-0.3c0.1-0.1,0.1-0.2,0.2-0.2
	c0.1-0.1,0.2-0.1,0.4-0.1c0.3,0,0.5,0.1,0.6,0.4c0.2,0.3,0.1,0.6,0,0.8l-0.4,0.6l0,0C9.8,28.7,8.3,34.3,8.3,40
	c0,5.8,1.6,11.5,4.6,16.4l0,0l0.2,0.3C13.3,57.2,13.2,57.6,12.8,57.9z"/>
<linearGradient id="SVGID_3_" gradientUnits="userSpaceOnUse" x1="67.5" y1="9.4252" x2="67.5" y2="70.5748">
	<stop  offset="0" style="stop-color:#FF0F0D"/>
	<stop  offset="1" style="stop-color:#E9E23B"/>
</linearGradient>
<path class="st3" d="M59,9.4v8.7c1.5,1.3,2.8,2.7,4,4.3v2.1c3,4.4,4.8,9.8,4.8,15.5c0,5.7-1.8,11.1-4.8,15.5v2.1
	c-1.2,1.5-2.5,3-4,4.3v8.7C69.2,64.2,76,52.9,76,40S69.2,15.8,59,9.4z M68.1,57.6C68,57.8,67.8,58,67.5,58c-0.1,0-0.3,0-0.4-0.1
	c-0.4-0.2-0.5-0.7-0.3-1l0.2-0.3l0,0c3-5,4.6-10.6,4.6-16.4c0-5.7-1.5-11.3-4.4-16.2l0,0l-0.4-0.6c-0.2-0.2-0.2-0.6,0-0.8
	c0.1-0.2,0.4-0.4,0.6-0.4c0.1,0,0.3,0,0.4,0.1c0.1,0.1,0.2,0.1,0.2,0.2l0.2,0.3c3.2,5.2,4.8,11.2,4.8,17.3c0,6.1-1.7,12.1-4.8,17.3
	L68.1,57.6z"/>
</svg>
