<svg class="gear-icon" version="1.1" xmlns="http://www.w3.org/2000/svg" xmlns:xlink="http://www.w3.org/1999/xlink" x="0px" y="0px"
	 viewBox="0 0 80 80" style="enable-background:new 0 0 80 80;" xml:space="preserve">
<style type="text/css">
	.gear-icon-piece {enable-background: new;}
	.gear-icon-path {fill-rule:evenodd;clip-rule:evenodd; fill:#9241FF;}
</style>
<g class="gear-icon-piece gear-icon-1-2">
		<path class="gear-icon-path" d="M0,40c0,16.4,9.9,30.5,24,36.7v-2.2C11,68.4,2,55.3,2,40s9-28.4,22-34.5V3.3C9.9,9.5,0,23.6,0,40z M56,3.3
				v2.2c13,6,22,19.2,22,34.5s-9,28.4-22,34.5v2.2C70.1,70.5,80,56.4,80,40S70.1,9.5,56,3.3z"/>
</g>
<g class="gear-icon-piece gear-icon-3-4">
		<path class="gear-icon-path" d="M4.8,37.1L2,35v11l2.9-2.1c-0.1-1.3-0.2-2.6-0.2-3.9C4.7,39,4.7,38,4.8,37.1z M75.2,37.1
				c0.1,1,0.1,1.9,0.1,2.9c0,1.3-0.1,2.6-0.2,3.9L78,46V35L75.2,37.1z"/>
</g>
<g class="gear-icon-piece gear-icon-5">
		<path class="gear-icon-path" d="M12.3,13.3l3.4,1c0.9-0.9,1.9-1.7,2.9-2.5c0.8-0.6,1.6-1.1,2.4-1.7l0-3.5L12.3,13.3z M63.5,66.4
				c-0.7,0.6-1.5,1.3-2.3,1.9c-1,0.8-2.1,1.5-3.2,2.1l0,3.6l8.8-6.6L63.5,66.4z"/>
</g>
<g class="gear-icon-piece gear-icon-6-7">
		<path class="gear-icon-path" d="M58.9,6.6l0,3.5c0.8,0.5,1.6,1.1,2.4,1.7c1,0.8,2,1.6,2.9,2.5l3.4-1L58.9,6.6z M16.5,66.4l-3.3,1l8.8,6.6
				l0-3.6c-1.1-0.7-2.2-1.4-3.2-2.1C17.9,67.6,17.2,67,16.5,66.4z"/>
</g>
</svg>