<svg class="gear-icon" version="1.1" xmlns="http://www.w3.org/2000/svg" xmlns:xlink="http://www.w3.org/1999/xlink" x="0px" y="0px"
	 viewBox="0 0 80 80" style="enable-background:new 0 0 80 80;" xml:space="preserve">
<style type="text/css">
	.gear-icon-piece {enable-background: new;}
	.gear-icon-path {fill-rule:evenodd;clip-rule:evenodd; fill:#9241FF;}
</style>
<g class="gear-icon-piece gear-icon-1-2">
		<path class="gear-icon-path" d="M0,40c0,16.4,9.9,30.5,24,36.7v-2.2C11,68.4,2,55.3,2,40s9-28.4,22-34.5V3.3C9.9,9.5,0,23.6,0,40z M56,3.3
				v2.2c13,6,22,19.2,22,34.5s-9,28.4-22,34.5v2.2C70.1,70.5,80,56.4,80,40S70.1,9.5,56,3.3z"/>
</g>
<g class="gear-icon-piece gear-icon-3-4">
		<path class="gear-icon-path" d="M4.8,37.1L2,35v11l2.9-2.1c-0.1-1.3-0.2-2.6-0.2-3.9C4.7,39,4.7,38,4.8,37.1z M75.2,37.1
				c0.1,1,0.1,1.9,0.1,2.9c0,1.3-0.1,2.6-0.2,3.9L78,46V35L75.2,37.1z"/>
</g>
<g class="gear-icon-piece gear-icon-5">
		<path class="gear-icon-path" d="M12.3,13.3l3.4,1c0.9-0.9,1.9-1.7,2.9-2.5c0.8-0.6,1.6-1.1,2.4-1.7l0-3.5L12.3,13.3z M63.5,66.4
				c-0.7,0.6-1.5,1.3-2.3,1.9c-1,0.8-2.1,1.5-3.2,2.1l0,3.6l8.8-6.6L63.5,66.4z"/>
</g>
<g class="gear-icon-piece gear-icon-6-7">
		<path class="gear-icon-path" d="M58.9,6.6l0,3.5c0.8,0.5,1.6,1.1,2.4,1.7c1,0.8,2,1.6,2.9,2.5l3.4-1L58.9,6.6z M16.5,66.4l-3.3,1l8.8,6.6
				l0-3.6c-1.1-0.7-2.2-1.4-3.2-2.1C17.9,67.6,17.2,67,16.5,66.4z"/>
</g>
<g class="gear-icon-piece gear-icon-8">
	<path class="gear-icon-path" d="M6.6,42.6c-0.1-0.8-0.1-1.6-0.1-2.4c0-11.5,5.8-21.7,14.6-27.7l0-3C10.8,15.8,4,27.2,4,40.1
		c0,1.4,0.1,2.8,0.2,4.2L6.6,42.6z"/>
	<path class="gear-icon-path" d="M58.1,68.2c0.7-0.4,1.3-0.9,2-1.4c9.2-6.9,13.8-17.7,13.3-28.3l2.4-1.8c1.1,12-3.8,24.3-14.2,32.1
		c-1.1,0.8-2.3,1.6-3.5,2.3L58.1,68.2z"/>
</g>
<g class="gear-icon-piece gear-icon-9">
	<path class="gear-icon-path" d="M73.3,42.6c0.1-0.8,0.1-1.6,0.1-2.4c0-11.5-5.7-21.7-14.6-27.7l0-3c10.3,6.4,17.1,17.7,17,30.7
		c0,1.4-0.1,2.8-0.3,4.2L73.3,42.6z"/>
	<path class="gear-icon-path" d="M21.9,68.3c-0.7-0.4-1.3-0.9-2-1.4C10.7,60,6,49.3,6.5,38.6l-2.4-1.8C3.1,48.8,8,61.1,18.4,68.9
		c1.1,0.8,2.3,1.6,3.5,2.3L21.9,68.3z"/>
</g>
</svg>