<svg class="gear-icon" version="1.1" xmlns="http://www.w3.org/2000/svg" xmlns:xlink="http://www.w3.org/1999/xlink" x="0px" y="0px"
	 viewBox="0 0 80 80" style="enable-background:new 0 0 80 80;" xml:space="preserve">
<style type="text/css">
	.gear-icon-piece {enable-background: new;}
	.gear-icon-path {fill-rule:evenodd;clip-rule:evenodd; fill:#98fd33;}
</style>
<g class="gear-icon-piece gear-icon-1-2">
		<path class="gear-icon-path" d="M0,40c0,16.4,9.9,30.5,24,36.7v-2.2C11,68.4,2,55.3,2,40s9-28.4,22-34.5V3.3C9.9,9.5,0,23.6,0,40z M56,3.3
				v2.2c13,6,22,19.2,22,34.5s-9,28.4-22,34.5v2.2C70.1,70.5,80,56.4,80,40S70.1,9.5,56,3.3z"/>
</g>
<g class="gear-icon-piece gear-icon-3-4">
		<path class="gear-icon-path" d="M4.8,37.1L2,35v11l2.9-2.1c-0.1-1.3-0.2-2.6-0.2-3.9C4.7,39,4.7,38,4.8,37.1z M75.2,37.1
				c0.1,1,0.1,1.9,0.1,2.9c0,1.3-0.1,2.6-0.2,3.9L78,46V35L75.2,37.1z"/>
</g>
</svg>