<svg xmlns="http://www.w3.org/2000/svg" viewBox="0 0 150 93"><defs><style>.\30 f7603fb-e683-4c4f-bc14-d3e790b5610a{fill:#3e8aa7;}.\33 89c53df-8d18-40bf-9c8f-9c3c7b825549{fill:#24445a;}.f68b18bf-86d1-4e29-9ed3-18d83ddd904a{fill:#315d82;}</style></defs><title>ship-frame</title><g id="c988c2ae-1a46-435d-935e-e939f157ce43" data-name="Layer 1"><polygon class="0f7603fb-e683-4c4f-bc14-d3e790b5610a" points="59 90 3 90 3 3 59 3 59 0 0 0 0 93 59 93 59 90"/><polygon class="0f7603fb-e683-4c4f-bc14-d3e790b5610a" points="91 0 91 3 147 3 147 90 91 90 91 93 150 93 150 0 91 0"/></g><g id="e507819c-ac34-4b94-876a-1fb5b378e2f0" data-name="Layer 2"><polygon class="389c53df-8d18-40bf-9c8f-9c3c7b825549" points="128.5 92.5 128.5 80.34 135.93 72.5 149.5 72.5 149.5 92.5 128.5 92.5"/><path class="f68b18bf-86d1-4e29-9ed3-18d83ddd904a" d="M156,79V98H136V86.54L143.14,79H156m1-1H142.71L135,86.14V99h22V78Z" transform="translate(-7 -6)"/></g></svg>